# xmcd
#
# Track frame offsets: 
#        150
#        14852
#        29628
#        46579
#        59779
#        77256
#        96456
#        121808
#        136959
#        154285
#        171337
#        188589
#        204716
#        224743
#        236967
#        258267
#        277569
#        286495
#
# Disc length: 4063 seconds
#
# Revision: 0
# Processed by: cddbd v1.5.1PL0 Copyright (c) Steve Scherf et al.
# Submitted via: ExactAudioCopy v0.95a5
#
DISCID=100fdd12
DTITLE=Various Artist - The Album Network Totallyadult No. 10
DYEAR=1995
DGENRE=Christmas/Holiday
TTITLE0=Southern Culture On The Skids - Merry Christmas Baby
TTITLE1=Room For Thought - I Remember Christmas
TTITLE2=The Kings - This Christmas
TTITLE3=Gary Hoey - Away In The Manger
TTITLE4=Lowen and Navarro - A Song Of Christmas
TTITLE5=Christie McCarthy - If Jesus Came Today
TTITLE6=Dave Matthews Band - Christmas Song
TTITLE7=Loreena McKennitt - Good King Wencelas
TTITLE8=Sarah McLachlan - Song For A Winter's Night
TTITLE9=Voice Of The Homeless - I'll Be Home For Christmas
TTITLE10=Paul McCartney - Wonderful Christmastime
TTITLE11=John and Yoko - Happy Xmas (War Is Over)
TTITLE12=Turtle Island String Quartet - Happy Xmas (War Is Over)
TTITLE13=Mary Karlzen - Run Rudolph Run
TTITLE14=Graham Parker - Soul Christmas
TTITLE15=Carolyn Wonderland and The Imperial Monkeys - Blue Lights
TTITLE16=Leon Redbone - Frosty The Snowman
TTITLE17=Jonatha Brooke - O Come, O Come Emmanuel
EXTD=
EXTT0=
EXTT1=
EXTT2=
EXTT3=
EXTT4=
EXTT5=
EXTT6=
EXTT7=
EXTT8=
EXTT9=
EXTT10=
EXTT11=
EXTT12=
EXTT13=
EXTT14=
EXTT15=
EXTT16=
EXTT17=
PLAYORDER=
